# xmcd
#
# Track frame offsets:
# 150
# 13940
# 32140
# 46882
# 67136
# 82848
# 98474
# 113244
# 130047
# 148649
# 166559
# 181000
# 194878
# 209137
# 222868
# 233622
# 244640
# 261097
# 277595
# 293266
#
# Disc length: 4085 seconds
#
#
# Revision: 0
# Processed by: cddbd v1.5.1PL2 Copyright (c) Steve Scherf et al.
# Submitted via: FreeRIP 2.945 
#
DISCID=100ff314
DTITLE=Roberto Carlos - As 20 Mais
DYEAR=2006
DGENRE=Blues
TTITLE0=Quintal Do Vizinho
TTITLE1=Os Seus Botões
TTITLE2=A Namorada
TTITLE3=Você É Linda
TTITLE4=O Dia A Dia
TTITLE5=É Preciso Saber Viver
TTITLE6=Eu Preciso Lhe Encontrar
TTITLE7=Se Eu Partir
TTITLE8=Você Já Me Esqueceu
TTITLE9=Amada Amante
TTITLE10=As Flores Do Jardim De Nossa Casa
TTITLE11=Ciume De Você
TTITLE12=Com Muito Amor E Carinho
TTITLE13=Custe O Que Custar
TTITLE14=E Por Isto Estou Aqui
TTITLE15=Escreva Meu Amor
TTITLE16=Eu Te Darei O Céu
TTITLE17=O Tempo Vai Apagar
TTITLE18=Eu Quase Fui Lhe Procurar
TTITLE19=Eu Só Vou Gostar De Quem Gosta De Mim
EXTD=
EXTT0=
EXTT1=
EXTT2=
EXTT3=
EXTT4=
EXTT5=
EXTT6=
EXTT7=
EXTT8=
EXTT9=
EXTT10=
EXTT11=
EXTT12=
EXTT13=
EXTT14=
EXTT15=
EXTT16=
EXTT17=
EXTT18=
EXTT19=
PLAYORDER=
